<?xml version="1.0" encoding="utf-8"?>
<!-- Generator: Adobe Illustrator 18.0.0, SVG Export Plug-In . SVG Version: 6.00 Build 0)  -->
<!DOCTYPE svg PUBLIC "-//W3C//DTD SVG 1.1//EN" "http://www.w3.org/Graphics/SVG/1.1/DTD/svg11.dtd">
<svg version="1.1" id="Layer_1" xmlns="http://www.w3.org/2000/svg" xmlns:xlink="http://www.w3.org/1999/xlink" x="0px" y="0px"
	 viewBox="0 0 438 594" style="enable-background:new 0 0 438 594;" xml:space="preserve">
<style type="text/css">
	.st0{fill:transparent;}
	.st1{fill: #A1915A;}
</style>
<g>
	<path class="st1" d="M227,0c8.1,1,16.1,1.9,24.2,3.1c29.2,4.3,57.1,12.8,83.1,26.8c28.9,15.6,46.5,40.2,55.5,71.3c5.1,17.7,7.1,35.9,8.1,54.2
		c0.4,7.3,1.1,14.6,1.2,21.9c0.2,10.4,5.1,19,10.8,26.9c6.3,8.8,13.7,16.6,20.3,25.1c3,3.9,5.2,8.3,7.8,12.5c0,2,0,4,0,6
		c-4.8,7.3-12.4,10.2-20.1,12.9c-6,2.1-6.5,2.9-4.8,9.1c0.3,1,0.6,1.9,0.9,2.9c3.4,12.4,3.1,13-8.4,18.4c0.9,1.5,1.9,3,2.7,4.5
		c2.1,3.8,4.1,6.6-1.1,10.7c-5.4,4.3-8.2,10.9-4.4,18.7c4.5,9.2,4.7,18.9,1.3,28.7c-1.9,5.6-5.4,9.8-11.3,10.8
		c-12.1,2-24.3,4.1-36.5,5.1c-15.3,1.2-29.3,5-42.3,13.4c-7.7,5-11.1,11.8-11,20.5c0.1,8.6,0.5,17.3,1.4,25.9c1,9.6,0.9,19.1-3.1,28
		c-5.6,12.8-3.6,24.5,4.2,35.3c6.2,8.6,12.4,17.4,20,24.7c10.3,9.9,18.8,20.9,26.5,32.9c9.5,14.8,20,29,30,43.5
		c-127.3,0-254.7,0-382,0c0-1.3,0-2.7,0-4c4.1-11,8-22.1,12.4-33c14.3-35.4,33.9-68.2,52.2-101.6c14.2-25.8,28.5-51.6,41.7-77.9
		c11.2-22.2,16-46.5,18.7-71.1c1-9.4,1.2-18.9,1.2-28.4c0-2.4-1.5-5.5-3.3-7.1c-23.1-19-39.1-43-50.1-70.5
		c-6.2-15.4-8.3-31.8-9.4-48.3c-1.6-22.3,1.6-44.1,8.1-65.5c6.2-20.5,19.7-35.4,35.9-48.6c27.7-22.5,59.9-33.2,94.9-37
		c1.6-0.2,3.2-0.7,4.8-1.1C213.7,0,220.3,0,227,0z M397.4,287.5c3-0.5,5.4-0.9,7.8-1.4c5.9-1.2,7-3,5.5-8.7
		c-0.7-2.6-1.6-5.1-2.2-7.7c-1.8-6.9,0.2-10.3,6.8-12.7c3.6-1.3,7.2-2.7,10.6-4.4c8.4-4.2,9.6-8.4,4.6-16.3c-1-1.5-2.3-2.8-3.5-4.2
		c-7.1-8.8-14.7-17.2-21.2-26.4c-6.6-9.3-10.5-19.5-11.2-31.4c-1.2-20.7-3-41.6-6.8-62c-6.5-34.8-24.7-62.4-56.6-79.2
		C298.7,16.1,263.9,6.6,227.4,5.1C183.9,3.3,144,14.3,109.5,42C94,54.4,81.4,68.9,75.5,88.4c-7.2,23.7-9.9,47.9-7.1,72.5
		c2.3,20.7,7.5,40.5,18.1,58.7c10.8,18.6,23.4,35.6,40.5,48.9c2.9,2.3,4.2,4.8,3.9,8.5c-0.8,11.1-0.8,22.3-2.1,33.4
		c-3.2,27.1-9.6,53.4-22.7,77.6c-18.4,34.1-37.2,68.1-55.9,102.1c-15.9,28.9-31,58.2-41.8,89.4c-1,3-1.9,6.1-2.9,9.5
		c122.6,0,244.3,0,366.7,0c-0.8-1.2-1.2-1.9-1.6-2.5c-7-10.3-14.4-20.4-20.8-31.1c-8.2-13.7-18.2-25.7-29.6-36.8
		c-7.9-7.7-14-17.2-20.2-26.4c-7.4-11-7.7-22.7-3.3-35.3c2.5-7.2,3.1-15.3,3.3-23c0.2-9.5-1.4-18.9-1.6-28.4
		c-0.2-11.4,3.9-20.5,14.2-26.8c12.1-7.3,24.8-11.6,38.9-12.9c13.1-1.2,26.1-3.1,39.1-5c5.3-0.8,8.2-4.4,9.8-9.5
		c2.8-8.7,2-17.2-1.9-25.2c-3.3-6.8-1.7-12.6,1.9-18.3c1.6-2.5,3.5-4.8,5.6-7.5C403.2,296.3,400.4,292,397.4,287.5z"/>
	<path class="st0" d="M397.4,287.5c3,4.5,5.8,8.7,8.6,12.9c-2.1,2.8-4,5-5.6,7.5c-3.7,5.7-5.3,11.5-1.9,18.3
		c3.9,8,4.7,16.5,1.9,25.2c-1.6,5.1-4.5,8.7-9.8,9.5c-13,1.9-26,3.8-39.1,5c-14,1.3-26.8,5.6-38.9,12.9
		c-10.3,6.2-14.4,15.4-14.2,26.8c0.2,9.5,1.7,19,1.6,28.4c-0.1,7.7-0.7,15.8-3.3,23c-4.4,12.6-4.2,24.3,3.3,35.3
		c6.2,9.2,12.4,18.8,20.2,26.4c11.5,11.2,21.4,23.1,29.6,36.8c6.4,10.7,13.8,20.7,20.8,31.1c0.4,0.6,0.8,1.3,1.6,2.5
		c-122.4,0-244.1,0-366.7,0c1-3.4,1.9-6.4,2.9-9.5c10.8-31.3,25.9-60.5,41.8-89.4c18.7-34,37.5-67.9,55.9-102.1
		c13.1-24.2,19.5-50.5,22.7-77.6c1.3-11.1,1.3-22.3,2.1-33.4c0.3-3.7-1-6.2-3.9-8.5c-17.1-13.3-29.7-30.3-40.5-48.9
		c-10.6-18.2-15.9-38-18.1-58.7c-2.7-24.7-0.1-48.8,7.1-72.5c6-19.5,18.5-34,34-46.4C144,14.3,183.9,3.3,227.4,5.1
		c36.5,1.5,71.3,11,103.7,28.1c31.9,16.9,50.1,44.4,56.6,79.2c3.8,20.4,5.5,41.2,6.8,62c0.7,12,4.6,22.2,11.2,31.4
		c6.5,9.2,14.1,17.6,21.2,26.4c1.2,1.4,2.5,2.7,3.5,4.2c5,7.9,3.8,12.2-4.6,16.3c-3.4,1.7-7,3.1-10.6,4.4c-6.6,2.3-8.6,5.8-6.8,12.7
		c0.7,2.6,1.5,5.1,2.2,7.7c1.5,5.7,0.4,7.5-5.5,8.7C402.8,286.7,400.3,287,397.4,287.5z M198,256.9c0,2.3,0.2,4.6,0,6.8
		c-0.6,4.8,1.7,7.6,6.1,7.9c5.2,0.3,10.6,0.5,15.6-0.7c6.8-1.6,8.2-4.1,8.1-11.2c-0.4-18.9,9.6-33.3,19.7-48c3.2,1.1,6,2.2,8.9,3.1
		c10.6,3.4,21.3,4.9,31.5-0.5c6-3.2,11.3-7.5,16.7-11.7c7.6-5.9,10-13.8,7.6-23.1c-0.6-2.3-0.9-4.8-1.4-7.6
		c11.2-1.7,21.8-3.6,32.5-5c12.9-1.7,23-7.7,28-19.7c9.2-21.7,8-43.1-5.7-62.6c-12.2-17.3-26.6-32.6-46-42.1
		c-13.9-6.8-27.9-13.6-42.3-19.1c-8.7-3.3-18.3-5.4-27.6-6c-15.7-0.9-31.6-0.9-47.4-0.1c-19.2,1-37.8,5-55.3,13.7
		c-12.8,6.4-22.6,16.4-32.2,26.5c-15.7,16.6-27.4,35.6-32.3,58.2c-4.4,20.3-5.1,41-3.2,61.6c1,10.9,5.2,21.2,11.2,30.7
		c4.9,7.8,13,8.5,20.9,9.8c3.3,0.5,5,1.8,5.9,5.4c5.5,21.9,23.7,34.1,46,31.6c1.8-0.2,4.2,0.7,5.5,1.9c4.5,4.3,9.5,6.1,15.5,4.6
		C188.7,260.2,193,258.5,198,256.9z"/>
	<path class="st1" d="M198,256.9c-5,1.6-9.3,3.3-13.7,4.4c-6,1.5-11-0.3-15.5-4.6c-1.3-1.2-3.7-2.1-5.5-1.9c-22.4,2.5-40.5-9.7-46-31.6
		c-0.9-3.6-2.6-4.8-5.9-5.4c-7.8-1.3-15.9-1.9-20.9-9.8c-6-9.5-10.1-19.8-11.2-30.7c-2-20.6-1.2-41.3,3.2-61.6
		c4.9-22.6,16.5-41.6,32.3-58.2c9.6-10.2,19.3-20.2,32.2-26.5c17.5-8.7,36.1-12.7,55.3-13.7c15.8-0.8,31.6-0.9,47.4,0.1
		c9.3,0.6,18.9,2.7,27.6,6c14.4,5.5,28.4,12.3,42.3,19.1c19.4,9.5,33.8,24.8,46,42.1c13.7,19.5,14.9,40.9,5.7,62.6
		c-5.1,12-15.1,18-28,19.7c-10.7,1.4-21.3,3.3-32.5,5c0.5,2.9,0.8,5.3,1.4,7.6c2.4,9.4-0.1,17.2-7.6,23.1
		c-5.3,4.2-10.7,8.5-16.7,11.7c-10.2,5.5-21,4-31.5,0.5c-2.8-0.9-5.6-2-8.9-3.1c-10.1,14.7-20,29.1-19.7,48
		c0.1,7.1-1.3,9.6-8.1,11.2c-5,1.2-10.4,1-15.6,0.7c-4.4-0.3-6.7-3.1-6.1-7.9C198.2,261.5,198,259.2,198,256.9z M201.9,248.1
		c0,4.9,0,8.8,0,12.8c0,6.3,0.6,7,7,7.6c1.6,0.2,3.3,0,5-0.2c8.7-1.1,10-2.9,9.9-11.6c0-3.4,0.5-7,1.3-10.3
		c3-12.5,9.6-23.2,16.6-33.9c3.1-4.8,6.1-5.5,11-3.4c7.4,3.2,15.1,5,23.3,4.4c11-0.8,18.3-8.3,26.2-14.4c5.9-4.6,8.1-10.8,6.1-18.3
		c-0.5-1.8-0.9-3.6-1.2-5.4c-1-5.8,0.3-7.4,6.2-8.3c10.7-1.6,21.4-3.3,32-5c9.8-1.5,17.4-6.6,21.3-15.4c2.9-6.4,4.9-13.5,5.5-20.5
		c1.4-17.4-3.5-32.7-15-46.6c-15.5-18.6-33.8-32.9-56.3-41.8c-13.1-5.2-26-11.5-39.6-14.8c-19.7-4.8-40.1-3.4-60.2-1.7
		c-16.6,1.4-33.1,4-48.3,11.5c-26,12.7-43.7,33.9-57.2,58.8c-11.2,20.6-12.6,43.5-13,66.4c-0.3,14.6,1.6,28.5,7.9,41.7
		c3.6,7.6,8.7,12.8,17.6,13.3c2.3,0.1,4.6,0.9,6.9,1.2c3.6,0.5,5.1,2.4,5.9,6c4,18.2,20.4,34.7,43,30.1c1.9-0.4,4.7,0.3,6.1,1.6
		c7,6.3,13.4,7.4,21.6,2.7C194.8,252.8,197.8,250.7,201.9,248.1z"/>
	<path class="st0" d="M201.9,248.1c-4.1,2.6-7.1,4.7-10.2,6.5c-8.2,4.7-14.7,3.7-21.6-2.7c-1.4-1.3-4.2-2-6.1-1.6
		c-22.6,4.7-39-11.9-43-30.1c-0.8-3.6-2.3-5.5-5.9-6c-2.3-0.3-4.6-1.1-6.9-1.2c-8.9-0.5-14-5.7-17.6-13.3
		c-6.3-13.2-8.2-27.1-7.9-41.7c0.4-23,1.8-45.8,13-66.4c13.5-24.8,31.3-46,57.2-58.8c15.1-7.4,31.6-10.1,48.3-11.5
		c20.1-1.6,40.5-3.1,60.2,1.7c13.6,3.3,26.5,9.5,39.6,14.8c22.4,9,40.7,23.2,56.3,41.8c11.5,13.8,16.4,29.2,15,46.6
		c-0.6,7-2.6,14.1-5.5,20.5c-4,8.8-11.6,13.9-21.3,15.4c-10.7,1.6-21.4,3.3-32,5c-5.9,0.9-7.1,2.5-6.2,8.3c0.3,1.8,0.7,3.6,1.2,5.4
		c2,7.4-0.2,13.7-6.1,18.3c-7.9,6.1-15.2,13.6-26.2,14.4c-8.2,0.6-15.9-1.3-23.3-4.4c-4.9-2.1-7.9-1.4-11,3.4
		c-6.9,10.7-13.5,21.4-16.6,33.9c-0.8,3.4-1.4,6.9-1.3,10.3c0.1,8.7-1.2,10.4-9.9,11.6c-1.6,0.2-3.3,0.4-5,0.2
		c-6.4-0.6-6.9-1.2-7-7.6C201.9,257,201.9,253,201.9,248.1z"/>
</g>
</svg>
