<?xml version="1.0" encoding="utf-8"?>
<!-- Generator: Adobe Illustrator 18.1.0, SVG Export Plug-In . SVG Version: 6.00 Build 0)  -->
<!DOCTYPE svg PUBLIC "-//W3C//DTD SVG 1.1//EN" "http://www.w3.org/Graphics/SVG/1.1/DTD/svg11.dtd">
<svg version="1.1" id="Layer_1" xmlns="http://www.w3.org/2000/svg" xmlns:xlink="http://www.w3.org/1999/xlink" x="0px" y="0px"
	 viewBox="0 0 37.2 18.5" style="enable-background:new 0 0 37.2 18.5;" xml:space="preserve">
<style type="text/css">
	.st0{fill:#929497;}
</style>
<g>
	<path class="st0" d="M0.3,0c0,0,0.7,9.8,8.3,9.8c5.4,0,11.3,3.8,9.5,6.8c-1.5,2.4-3.5-0.8-8.9-0.8C2,15.8-0.9,6.2,0.3,0z"/>
	<path class="st0" d="M37,0c0,0-0.7,9.8-8.3,9.8c-5.4,0-11.3,3.8-9.5,6.8c1.5,2.4,3.5-0.8,8.9-0.8C35.2,15.8,38.2,6.2,37,0z"/>
	<path class="st0" d="M26.8,13.9c0,2.5-1.6,4.6-3.6,4.6H14c-2,0-3.6-2.1-3.6-4.6l0,0c0-2.5,1.6-4.6,3.6-4.6h9.2
		C25.2,9.4,26.8,11.4,26.8,13.9L26.8,13.9z"/>
</g>
</svg>
