<?xml version="1.0" encoding="utf-8"?>
<!-- Generator: Adobe Illustrator 18.1.0, SVG Export Plug-In . SVG Version: 6.00 Build 0)  -->
<!DOCTYPE svg PUBLIC "-//W3C//DTD SVG 1.1//EN" "http://www.w3.org/Graphics/SVG/1.1/DTD/svg11.dtd">
<svg version="1.1" id="Layer_1" xmlns="http://www.w3.org/2000/svg" xmlns:xlink="http://www.w3.org/1999/xlink" x="0px" y="0px"
	 viewBox="0 0 18.5 20.3" style="enable-background:new 0 0 18.5 20.3;" xml:space="preserve">
<style type="text/css">
	.st0{fill:#929497;}
</style>
<path class="st0" d="M0,20.3c1.3-2.3,2.4-4.1,3.3-5.5c2.7-4.5,3.3-5.4,3.3-6.7c0-1.1-0.4-1.6-3.7-5.9L1.1,0h1.8
	c1,1.2,1.8,2.3,2.4,3.1c2.7,3.5,3,3.8,3,5c0,1.5-0.4,2.2-2.7,6c-0.9,1.5-2.1,3.5-3.7,6.2H0z"/>
<path class="st0" d="M16.6,20.3c-1.6-2.7-2.8-4.7-3.7-6.2c-2.3-3.8-2.7-4.5-2.7-6c0-1.2,0.3-1.5,3-5c0.7-0.8,1.5-1.9,2.4-3.1h1.8
	l-1.7,2.2C12.4,6.5,12,7,12,8.1c0,1.3,0.6,2.2,3.3,6.7c0.9,1.4,1.9,3.2,3.3,5.5H16.6z"/>
</svg>
