<?xml version="1.0" encoding="utf-8"?>
<!-- Generator: Adobe Illustrator 18.1.0, SVG Export Plug-In . SVG Version: 6.00 Build 0)  -->
<!DOCTYPE svg PUBLIC "-//W3C//DTD SVG 1.1//EN" "http://www.w3.org/Graphics/SVG/1.1/DTD/svg11.dtd">
<svg version="1.1" id="Layer_1" xmlns="http://www.w3.org/2000/svg" xmlns:xlink="http://www.w3.org/1999/xlink" x="0px" y="0px"
	 viewBox="0 0 15.8 23.9" style="enable-background:new 0 0 15.8 23.9;" xml:space="preserve">
<style type="text/css">
	.st0{fill:#929497;}
</style>
<path class="st0" d="M15.8,1.3c0-0.7-0.6-1.3-1.3-1.3s-1.3,0.6-1.3,1.3c0,2.2,0.9,2.6,0.9,3.2c0,3.2,0.2,8.6,0.2,11.3
	c0,3.9-2.6,7.5-7.3,7.3c-4.7-0.2-8.5-6.4-4.6-11.7c0.6-0.8,0.9,2,0.9,2c0.6-3.6,3-5.8,3-5.8s-3,0.9-4.6,3.2c-4.2,6-0.2,13,5.2,13.1
	c5.3,0.2,8.1-3.3,8.1-7.5c0-3.2-0.1-9-0.1-11.9C15,3.9,15.8,3.4,15.8,1.3z M13.6,1.4c0-0.5,0.4-1,1-1c0.5,0,1,0.4,1,1
	c0,0.5-0.4,1-1,1C14,2.4,13.6,2,13.6,1.4z"/>
</svg>
