<?xml version="1.0" encoding="utf-8"?>
<!-- Generator: Adobe Illustrator 18.1.0, SVG Export Plug-In . SVG Version: 6.00 Build 0)  -->
<!DOCTYPE svg PUBLIC "-//W3C//DTD SVG 1.1//EN" "http://www.w3.org/Graphics/SVG/1.1/DTD/svg11.dtd">
<svg version="1.1" id="Layer_1" xmlns="http://www.w3.org/2000/svg" xmlns:xlink="http://www.w3.org/1999/xlink" x="0px" y="0px"
	 viewBox="0 0 18 18" style="enable-background:new 0 0 18 18;" xml:space="preserve">
<style type="text/css">
	.st0{fill:#929497;}
	.st1{fill:#404041;}
</style>
<g>
	<circle class="st0" cx="9" cy="9" r="9"/>
	<polygon class="st1" points="7.6,11.3 6.2,8.9 7.6,6.5 10.4,6.5 11.8,8.9 10.4,11.3 	"/>
	<polygon class="st1" points="15.5,11.3 14.8,8.9 15.5,6.5 16.9,6.5 17.6,8.9 16.9,11.3 	"/>
	<polygon class="st1" points="1.1,11.3 0.4,8.9 1.1,6.5 2.5,6.5 3.2,8.9 2.5,11.3 	"/>
	<polygon class="st1" points="10.1,15.7 11.9,13.9 14.3,13.4 15,14.6 13.3,16.4 10.8,17 	"/>
	<polygon class="st1" points="3,3.2 4.8,1.4 7.2,0.9 7.9,2.1 6.2,3.9 3.7,4.5 	"/>
	<polygon class="st1" points="3.6,13.2 6,13.9 7.7,15.7 7,16.9 4.5,16.3 2.9,14.4 	"/>
	<polygon class="st1" points="11.1,0.9 13.5,1.5 15.2,3.4 14.4,4.6 12,4 10.3,2.1 	"/>
</g>
</svg>
