<?xml version="1.0" encoding="utf-8"?>
<!-- Generator: Adobe Illustrator 18.1.0, SVG Export Plug-In . SVG Version: 6.00 Build 0)  -->
<!DOCTYPE svg PUBLIC "-//W3C//DTD SVG 1.1//EN" "http://www.w3.org/Graphics/SVG/1.1/DTD/svg11.dtd">
<svg version="1.1" id="Layer_1" xmlns="http://www.w3.org/2000/svg" xmlns:xlink="http://www.w3.org/1999/xlink" x="0px" y="0px"
	 viewBox="0 0 33 33" style="enable-background:new 0 0 33 33;" xml:space="preserve">
<style type="text/css">
	<!-- .st0{fill:#EE4036;}
	.st1{fill:#9B2E2D;}
 -->
	.st0{fill:#A1915A;}
	.st1{fill:#414042;}
</style>
<rect x="0" y="0" class="st0" width="33" height="33"/>
<g>
	<g>
		<path class="st1" d="M22.7,8.5c-0.1,0.9-0.1,1.9-0.1,3.4v7.2c0,2.8-0.6,4.6-1.8,5.7c-1.2,1.1-2.9,1.5-4.5,1.5
			c-1.5,0-3.1-0.4-4.1-1l0.6-1.7c0.8,0.5,2.1,1,3.6,1c2.3,0,4-1.2,4-4.3v-1.4h-0.1c-0.7,1.2-2,2.1-3.9,2.1c-3.1,0-5.3-2.6-5.3-6
			c0-4.2,2.7-6.6,5.6-6.6c2.2,0,3.3,1.1,3.9,2.2h0.1l0.1-1.9H22.7z M20.4,13.4c0-0.4,0-0.7-0.1-1c-0.4-1.3-1.5-2.4-3.2-2.4
			c-2.2,0-3.7,1.8-3.7,4.7c0,2.4,1.2,4.5,3.7,4.5c1.4,0,2.6-0.9,3.1-2.3c0.1-0.4,0.2-0.8,0.2-1.2V13.4z"/>
	</g>
</g>
</svg>
