<?xml version="1.0" encoding="utf-8"?>
<!-- Generator: Adobe Illustrator 18.1.0, SVG Export Plug-In . SVG Version: 6.00 Build 0)  -->
<!DOCTYPE svg PUBLIC "-//W3C//DTD SVG 1.1//EN" "http://www.w3.org/Graphics/SVG/1.1/DTD/svg11.dtd">
<svg version="1.1" id="Layer_1" xmlns="http://www.w3.org/2000/svg" xmlns:xlink="http://www.w3.org/1999/xlink" x="0px" y="0px"
	 viewBox="0 0 33 33" style="enable-background:new 0 0 33 33;" xml:space="preserve">
<style type="text/css">
	<!-- .st0{fill:#F6921E;}
	.st1{fill:#603813;} -->

	.st0{fill:#A1915A;}
	.st1{fill:#414042;}
</style>
<rect x="0" y="0" class="st0" width="33" height="33"/>
<g>
	<path class="st1" d="M9.2,8c0.7-0.9,1.6-1.1,2.7-0.9c1,0.2,1.7,0.9,2.4,1.7c0.2-0.8,0.4-1.6,1.2-2c0.1,0.3,0.1,0.6,0.2,0.9
		c0.3-0.7,0.8-1.2,1.6-1.4c0,0.4,0.1,0.9,0.1,1.3c0.5-0.2,0.8-0.4,1.4-0.7c-0.1,0.5-0.2,0.8-0.3,1.1c0,0.2,0.1,0.4,0.1,0.6
		c0.2-0.1,0.4-0.2,0.5-0.3c0.8-0.9,1.8-1.5,3.1-1.3c0.6,0.1,1.2,0.4,1.6,1c-0.4,0.2-0.8,0.3-1.1,0.4C22.2,8.6,22,9,22.2,9.5
		c0,0.1,0.2,0.3,0.3,0.3c1.1,0.3,1.3,1,0.8,2c-0.2,0.4-0.3,0.8-0.3,1.3c0,0.3,0.2,0.6,0.4,0.8c0.7,0.7,0.7,1.4,0,2
		c-0.3,0.3-0.8,0.5-1.2,0.8c-0.5,0.3-0.7,0.6-0.7,1.2c0,0.6,0,1.3,0.1,1.9c0,0.1,0,0.2,0.2,0.4c0.3-0.5,0.6-1,0.9-1.5
		c1.3,1,1,3.6-0.5,4.6c-0.3,0.2-0.6,0.5-0.9,0.8c-0.5,0.7-1.2,1.2-2,1.3c-0.1,0-0.3,0.1-0.4,0.1c-1.6,0.9-3.2,0.9-4.8,0
		c-0.1-0.1-0.3-0.1-0.4-0.1c-0.9-0.2-1.6-0.7-2.1-1.4c-0.2-0.3-0.5-0.5-0.8-0.7c-1.6-0.9-1.9-3.4-0.6-4.6c0.3,0.5,0.6,1,0.8,1.5
		c0.1,0,0.2,0,0.3-0.1c0-0.9,0-1.8,0-2.7c0-0.3-0.4-0.5-0.6-0.7c-0.4-0.3-0.8-0.5-1.2-0.8c-0.7-0.6-0.7-1.4,0-2
		c0.5-0.5,0.7-1.3,0.3-1.9c-0.1-0.2-0.3-0.5-0.3-0.7c-0.2-0.7,0.1-1.2,0.8-1.5c0.2-0.1,0.6,0,0.5-0.4c0-0.3-0.1-0.7-0.4-0.9
		C10.2,8.3,9.7,8.2,9.2,8z"/>
</g>
</svg>
