<?xml version="1.0" encoding="utf-8"?>
<!-- Generator: Adobe Illustrator 18.1.0, SVG Export Plug-In . SVG Version: 6.00 Build 0)  -->
<!DOCTYPE svg PUBLIC "-//W3C//DTD SVG 1.1//EN" "http://www.w3.org/Graphics/SVG/1.1/DTD/svg11.dtd">
<svg version="1.1" id="Layer_1" xmlns="http://www.w3.org/2000/svg" xmlns:xlink="http://www.w3.org/1999/xlink" x="0px" y="0px"
	 viewBox="0 0 33 33" style="enable-background:new 0 0 33 33;" xml:space="preserve">
<style type="text/css">
	.st0{fill:#F6921E;}
	.st1{fill:#FCC172;}
</style>
<rect x="0" y="0" class="st0" width="33" height="33"/>
<g>
	<g>
		<path class="st1" d="M10.1,20.2L8.5,25H6.5l5.2-15.4h2.4L19.3,25h-2.1l-1.6-4.8H10.1z M15.1,18.7l-1.5-4.4c-0.3-1-0.6-1.9-0.8-2.8
			h0c-0.2,0.9-0.5,1.8-0.8,2.8l-1.5,4.4H15.1z"/>
		<path class="st1" d="M23.7,10.9c0,0.7-0.5,1.2-1.3,1.2c-0.7,0-1.2-0.5-1.2-1.2c0-0.7,0.5-1.3,1.3-1.3
			C23.2,9.7,23.7,10.2,23.7,10.9z M21.4,25V14h2v11H21.4z"/>
	</g>
</g>
</svg>
