<?xml version="1.0" encoding="utf-8"?>
<!-- Generator: Adobe Illustrator 18.1.0, SVG Export Plug-In . SVG Version: 6.00 Build 0)  -->
<!DOCTYPE svg PUBLIC "-//W3C//DTD SVG 1.1//EN" "http://www.w3.org/Graphics/SVG/1.1/DTD/svg11.dtd">
<svg version="1.1" id="Layer_1" xmlns="http://www.w3.org/2000/svg" xmlns:xlink="http://www.w3.org/1999/xlink" x="0px" y="0px"
	 viewBox="0 0 20.1 20" style="enable-background:new 0 0 20.1 20;" xml:space="preserve">
<style type="text/css">
	.st0{fill:#929497;}
</style>
<path class="st0" d="M19.8,0.4c-0.6-0.6-18.9-0.6-19.5,0C-0.2,1,0,11.3,0.3,12.3c0.3,0.9,9.2,7.2,9.7,7.7c0,0,9.3-6.7,9.7-7.7
	C20.2,11.4,20.3,0.9,19.8,0.4z M18.7,3.2c0,0.4,0,0.9,0,1.4c0,0.1-0.1,0.2-0.2,0.2c0,0,0,0,0,0c-0.1,0-0.2-0.1-0.2-0.2
	c0-0.5,0-1,0-1.4c0-0.1,0.1-0.2,0.2-0.2C18.6,3,18.7,3.1,18.7,3.2z M11.9,1L11.9,1c0.5,0,0.9,0,1.4,0c0.1,0,0.2,0.1,0.2,0.2
	c0,0.1-0.1,0.2-0.2,0.2c0,0,0,0,0,0c-0.4,0-0.9,0-1.4,0c-0.1,0-0.2-0.1-0.2-0.2S11.7,1,11.9,1z M1.7,1.4c0.1-0.1,0.2-0.1,0.6-0.2
	c0.1,0,0.2,0.1,0.3,0.2c0,0.1-0.1,0.2-0.2,0.3c-0.2,0-0.3,0-0.3,0.1c0,0.1-0.1,0.2-0.1,0.7c0,0.1-0.1,0.2-0.2,0.2c0,0,0,0,0,0
	c-0.1,0-0.2-0.1-0.2-0.2C1.5,1.7,1.6,1.5,1.7,1.4z M1.4,3.8c0-0.1,0.1-0.2,0.2-0.2c0.1,0,0.2,0.1,0.2,0.2c0,0.4,0,0.9,0,1.4
	c0,0.1-0.1,0.2-0.2,0.2h0c-0.1,0-0.2-0.1-0.2-0.2C1.3,4.7,1.3,4.2,1.4,3.8z M1.3,6.5c0-0.1,0.1-0.2,0.2-0.2c0,0,0,0,0,0
	c0.1,0,0.2,0.1,0.2,0.2c0,0.5,0,0.9,0,1.4c0,0.1-0.1,0.2-0.2,0.2c0,0,0,0,0,0C1.5,8.1,1.4,8,1.4,7.9C1.4,7.4,1.4,7,1.3,6.5z
	 M1.7,10.8c-0.1,0-0.2-0.1-0.2-0.2c0-0.4-0.1-0.8-0.1-1.4C1.4,9.1,1.5,9,1.6,9c0.1,0,0.2,0.1,0.2,0.2c0,0.5,0.1,1,0.1,1.4
	C2,10.7,1.9,10.8,1.7,10.8C1.7,10.8,1.7,10.8,1.7,10.8z M3.3,12.9C3.3,13,3.2,13,3.2,13C3.1,13,3.1,13,3,13c-0.5-0.4-0.8-0.7-1-0.9
	c-0.1-0.1-0.1-0.2,0-0.3c0.1-0.1,0.2-0.1,0.3,0c0.2,0.2,0.5,0.5,1,0.9C3.4,12.7,3.4,12.8,3.3,12.9z M3.7,1.5c-0.1,0-0.2-0.1-0.2-0.2
	c0-0.1,0.1-0.2,0.2-0.2C4.1,1.1,4.5,1,5,1c0.1,0,0.2,0.1,0.2,0.2c0,0.1-0.1,0.2-0.2,0.2C4.5,1.5,4.1,1.5,3.7,1.5
	C3.7,1.5,3.7,1.5,3.7,1.5z M5.5,14.6c0,0.1-0.1,0.1-0.2,0.1c0,0-0.1,0-0.1,0c-0.4-0.3-0.7-0.6-1.1-0.8C4,13.7,4,13.6,4,13.5
	c0.1-0.1,0.2-0.1,0.3,0c0.3,0.3,0.7,0.6,1.1,0.8C5.5,14.4,5.6,14.5,5.5,14.6z M7.7,16.3c0,0.1-0.1,0.1-0.2,0.1c0,0-0.1,0-0.1,0
	C7,16,6.6,15.8,6.3,15.5c-0.1-0.1-0.1-0.2,0-0.3c0.1-0.1,0.2-0.1,0.3,0c0.4,0.3,0.7,0.6,1.1,0.8C7.7,16,7.8,16.2,7.7,16.3z M7.8,1.4
	c-0.5,0-0.9,0-1.4,0c0,0,0,0,0,0c-0.1,0-0.2-0.1-0.2-0.2C6.2,1.1,6.3,1,6.4,1c0.4,0,0.9,0,1.4,0c0,0,0,0,0,0C7.9,1,8,1.1,8,1.2
	C8,1.3,7.9,1.4,7.8,1.4z M9.9,17.9c0,0.1-0.1,0.1-0.2,0.1c0,0-0.1,0-0.1,0l-1.1-0.8c-0.1-0.1-0.1-0.2,0-0.3s0.2-0.1,0.3,0l1.1,0.8
	C9.9,17.6,10,17.8,9.9,17.9z M10.3,1.4c-0.4,0-0.8,0-1.2,0h0C9,1.4,8.9,1.3,8.9,1.2c0-0.1,0.1-0.2,0.2-0.2c0.4,0,0.8,0,1.2,0h0.2
	c0.1,0,0.2,0.1,0.2,0.2s-0.1,0.2-0.2,0.2H10.3z M12.1,16.9c-0.4,0.3-0.8,0.6-1.1,0.8c0,0-0.1,0-0.1,0c-0.1,0-0.1,0-0.2-0.1
	c-0.1-0.1-0.1-0.2,0.1-0.3c0.3-0.2,0.7-0.5,1.1-0.8c0.1-0.1,0.2-0.1,0.3,0C12.2,16.7,12.2,16.8,12.1,16.9z M14.3,15.2
	c-0.4,0.3-0.7,0.6-1.1,0.8c0,0-0.1,0-0.1,0c-0.1,0-0.1,0-0.2-0.1c-0.1-0.1-0.1-0.2,0-0.3c0.4-0.3,0.7-0.5,1.1-0.8
	c0.1-0.1,0.2-0.1,0.3,0C14.4,15,14.4,15.2,14.3,15.2z M14.4,1.2c0-0.1,0.1-0.2,0.2-0.2c0.5,0,1,0,1.4,0c0.1,0,0.2,0.1,0.2,0.2
	c0,0.1-0.1,0.2-0.2,0.2c0,0,0,0,0,0c-0.4,0-0.9,0-1.4,0C14.5,1.4,14.4,1.3,14.4,1.2z M16.4,13.6c-0.3,0.3-0.7,0.6-1.1,0.8
	c0,0-0.1,0-0.1,0c-0.1,0-0.1,0-0.2-0.1c-0.1-0.1-0.1-0.2,0-0.3c0.4-0.3,0.7-0.6,1.1-0.8c0.1-0.1,0.2-0.1,0.3,0
	C16.6,13.3,16.5,13.5,16.4,13.6z M17.4,1.1c0.9,0.1,1,0.2,1.1,0.2c0.1,0.1,0.1,0.2,0.2,0.5c0,0.1-0.1,0.2-0.2,0.3c0,0,0,0,0,0
	c-0.1,0-0.2-0.1-0.2-0.2c0-0.1,0-0.2,0-0.2c-0.1,0-0.3-0.1-0.8-0.1c-0.1,0-0.2-0.1-0.2-0.2C17.1,1.2,17.2,1.1,17.4,1.1z M18.6,11.5
	c0,0.1,0,0.1,0,0.1c-0.1,0.1-0.2,0.4-1,1.1c0,0-0.1,0.1-0.1,0.1c-0.1,0-0.1,0-0.2-0.1c-0.1-0.1-0.1-0.2,0-0.3
	c0.8-0.7,0.9-0.8,0.9-0.9c0,0,0,0,0-0.1c0-0.1,0.1-0.2,0.3-0.2C18.5,11.3,18.6,11.4,18.6,11.5z M18.7,10.1c0,0.1-0.1,0.2-0.2,0.2
	c0,0,0,0,0,0c-0.1,0-0.2-0.1-0.2-0.2c0-0.4,0-0.9,0.1-1.4c0-0.1,0.1-0.2,0.2-0.2c0.1,0,0.2,0.1,0.2,0.2C18.7,9.2,18.7,9.7,18.7,10.1
	z M18.8,6c0,0.5,0,0.9,0,1.4c0,0.1-0.1,0.2-0.2,0.2c0,0,0,0,0,0c-0.1,0-0.2-0.1-0.2-0.2c0-0.4,0-0.9,0-1.4c0-0.1,0.1-0.2,0.2-0.2
	C18.7,5.8,18.8,5.9,18.8,6L18.8,6z"/>
</svg>
