<?xml version="1.0" encoding="utf-8"?>
<!-- Generator: Adobe Illustrator 18.1.0, SVG Export Plug-In . SVG Version: 6.00 Build 0)  -->
<!DOCTYPE svg PUBLIC "-//W3C//DTD SVG 1.1//EN" "http://www.w3.org/Graphics/SVG/1.1/DTD/svg11.dtd">
<svg version="1.1" id="Layer_1" xmlns="http://www.w3.org/2000/svg" xmlns:xlink="http://www.w3.org/1999/xlink" x="0px" y="0px"
	 viewBox="0 0 33 33" style="enable-background:new 0 0 33 33;" xml:space="preserve">
<style type="text/css">
	.st0{fill:#2B388F;}
	.st1{fill:#26A9E0;}
</style>
<rect x="0" y="0" class="st0" width="33" height="33"/>
<g>
	<g>
		<path class="st1" d="M7.9,8.7c1-0.2,2.2-0.3,3.8-0.3c2,0,3.4,0.5,4.3,1.3c0.8,0.7,1.3,1.8,1.3,3.2c0,1.4-0.4,2.5-1.2,3.3
			c-1,1.1-2.8,1.7-4.7,1.7c-0.6,0-1.1,0-1.6-0.1v6.2h-2V8.7z M9.9,16.1c0.4,0.1,1,0.2,1.6,0.2c2.4,0,3.9-1.2,3.9-3.3
			c0-2-1.4-3-3.6-3c-0.9,0-1.5,0.1-1.9,0.2V16.1z"/>
		<path class="st1" d="M19.2,21.8c0.6,0.4,1.6,0.8,2.6,0.8c1.5,0,2.1-0.7,2.1-1.6c0-1-0.6-1.5-2-2c-2-0.7-2.9-1.8-2.9-3.1
			c0-1.8,1.4-3.2,3.8-3.2c1.1,0,2.1,0.3,2.7,0.7L25,14.7c-0.4-0.3-1.2-0.6-2.3-0.6c-1.2,0-1.8,0.7-1.8,1.5c0,0.9,0.7,1.3,2.1,1.9
			c1.9,0.7,2.9,1.7,2.9,3.3c0,1.9-1.5,3.3-4.1,3.3c-1.2,0-2.3-0.3-3.1-0.8L19.2,21.8z"/>
	</g>
</g>
</svg>
