<?xml version="1.0" encoding="utf-8"?>
<!-- Generator: Adobe Illustrator 18.1.0, SVG Export Plug-In . SVG Version: 6.00 Build 0)  -->
<!DOCTYPE svg PUBLIC "-//W3C//DTD SVG 1.1//EN" "http://www.w3.org/Graphics/SVG/1.1/DTD/svg11.dtd">
<svg version="1.1" id="Layer_1" xmlns="http://www.w3.org/2000/svg" xmlns:xlink="http://www.w3.org/1999/xlink" x="0px" y="0px"
	 viewBox="0 0 33 33" style="enable-background:new 0 0 33 33;" xml:space="preserve">
<style type="text/css">
	.st0{fill:#6D6E70;}
	.st1{fill:#F6921E;}
</style>
<rect x="0" y="0" class="st0" width="33" height="33"/>
<g>
	<path class="st1" d="M19.4,16.3c0.6,0.2,1,0.4,1.4,0.8c0.4,0.3,0.7,0.8,0.9,1.3c0.2,0.5,0.3,1.1,0.3,1.9c0,1.4-0.5,2.5-1.6,3.4
		c-1,0.8-2.5,1.2-4.3,1.2c-1.2,0-2.3-0.2-3.2-0.5c-0.9-0.3-1.7-0.7-2.4-1.3l1.1-2.4c0.6,0.6,1.3,1,2,1.4s1.6,0.5,2.4,0.5
		c2.1,0,3.1-0.8,3.1-2.3c0-0.6-0.2-1-0.5-1.4c-0.3-0.3-0.8-0.5-1.5-0.6l-1.9-0.2c-1.5-0.1-2.7-0.6-3.5-1.3c-0.8-0.7-1.2-1.7-1.2-3
		c0-0.6,0.1-1.2,0.4-1.8c0.2-0.5,0.6-1,1.1-1.4s1-0.7,1.7-0.9c0.7-0.2,1.4-0.3,2.2-0.3c0.9,0,1.8,0.1,2.7,0.4
		c0.9,0.3,1.7,0.6,2.3,0.9l-1,2.2c-0.6-0.4-1.3-0.8-1.9-1s-1.4-0.4-2-0.4c-0.8,0-1.5,0.2-1.9,0.6c-0.4,0.4-0.7,1-0.7,1.6
		c0,0.6,0.2,1.1,0.6,1.4c0.4,0.3,0.9,0.5,1.6,0.6l1.8,0.2C18.2,16,18.8,16.1,19.4,16.3z"/>
</g>
</svg>
