<?xml version="1.0" encoding="utf-8"?>
<!-- Generator: Adobe Illustrator 18.1.0, SVG Export Plug-In . SVG Version: 6.00 Build 0)  -->
<!DOCTYPE svg PUBLIC "-//W3C//DTD SVG 1.1//EN" "http://www.w3.org/Graphics/SVG/1.1/DTD/svg11.dtd">
<svg version="1.1" id="Layer_1" xmlns="http://www.w3.org/2000/svg" xmlns:xlink="http://www.w3.org/1999/xlink" x="0px" y="0px"
	 viewBox="0 0 15.6 22" style="enable-background:new 0 0 15.6 22;" xml:space="preserve">
<style type="text/css">
	.st0{fill:#929497;}
</style>
<path class="st0" d="M15.5,1L15.5,1l0-0.2c-8.8-1.7-15.4,0-15.4,0v0.3c0,1.3-0.3,17,0.2,19.4c0.4,1.9,14.9,2.1,15.2,0
	C15.7,18.6,15.5,1,15.5,1z M14.7,1c-1.4,0.1-4.5,0.3-6.6,0.4C5.6,1.4,2.1,1.2,0.7,1C2.5,0.7,7.8-0.1,14.7,1z M14.4,20.1
	c-0.2,1.8-12.8,1.6-13.1,0c-0.3-1.4-0.1-4.4,0-3.7c0.3,1.6,12.9,1.8,13.1,0C14.5,16.1,14.5,19.3,14.4,20.1z M14.4,16
	c-0.2,1.8-12.8,1.6-13.1,0c-0.5-2.2-0.2-9.4-0.2-9.4S5.1,7,7.8,7c0.5-1.2,2-2.9,2-2.9s3.5,1.5,3.5,2.1c0,0.1-0.1,0.3-0.2,0.6
	c0.8-0.1,1.3-0.1,1.3-0.1S14.6,14.4,14.4,16z"/>
</svg>
