<?xml version="1.0" encoding="utf-8"?>
<!-- Generator: Adobe Illustrator 18.1.0, SVG Export Plug-In . SVG Version: 6.00 Build 0)  -->
<!DOCTYPE svg PUBLIC "-//W3C//DTD SVG 1.1//EN" "http://www.w3.org/Graphics/SVG/1.1/DTD/svg11.dtd">
<svg version="1.1" id="Layer_1" xmlns="http://www.w3.org/2000/svg" xmlns:xlink="http://www.w3.org/1999/xlink" x="0px" y="0px"
	 viewBox="0 0 161.8 188.7" style="enable-background:new 0 0 161.8 188.7;" xml:space="preserve">
<style type="text/css">
	.st0{fill:#DBDDCC;}
</style>
<g>
	<path class="st0" d="M158.1,13c-24.3-9.2-50-13-76.4-13l0,0c-38.1,0-67.4,9-77,12.2l-0.8,0.3L0,13.8l0.3,4.1l14.8,142.9l0.3,6.8
		l3.3,1.1l59.7,19.6l1.6,0.5l1.6-0.5l61.9-18.3l3.4-1l0.3-6.9l14.4-143.8l0.3-3.9L158.1,13z M5,17.3c6.5-2.7,13.5-4,13.5-4
		c-4.6,1-10.7,3.7-11.8,4.9c-1.1,1.2,1.3,28.4,1.3,28.4L5,17.3z M80.3,185l-15.7-4.9l15.7,3.5l16.4-3.5L80.3,185z M80.1,178.4
		l-54.7-16.8l-2.1-23.1l2.2,9.2l-0.1-0.7c0,0,4.1-1.9,11.4-4.4c0-0.2,0-0.4-0.1-0.5c-1.6,0.4-2.3,0.6-3.9,0.9
		c-0.6-1.8-1-4.1-1.4-6.1c1.4-0.5,3.3-1.2,4.9-1.8c0-0.2-0.1-3.3,0-3.7c-1.8-0.6-3.5-1.3-5.2-2c0.5-1.8,1.4-3.6,2.4-5.3
		c2,0.1,4,0.2,6,0.4c0.5-0.7,3.1-3.2,3.7-3.8c-1-1.1-1.9-2.3-2.8-3.6c1.9-1.4,4.1-2.5,6.3-3.5c1.7,0.8,3.3,1.6,4.8,2.5
		c1-0.4,5.2-1.5,6.2-1.8c0-1.3,0.2-2.6,0.5-4c2.7-0.5,5.5-0.6,8.2-0.6c0.8,1.2,1.5,2.5,2,3.8c1.1,0.1,5.6,0.5,6.7,0.8
		c1.1-1.1,2.4-2.2,3.7-3.1c2.6,0.6,5.2,1.4,7.5,2.5c-0.3,1.3-0.8,2.6-1.3,3.9c0.9,0.5,4.4,2.5,5.1,3.1c1.8-0.5,3.7-0.9,5.7-1.3
		c1.7,1.5,3.2,3.1,4.4,4.8c-1.4,1-2.8,1.9-4.3,2.8c0.2,0.5,0.9,1.3,1.4,2c13.3-1.4,27.6-1.7,42.1-0.1l0,0.1
		c-12.1-0.2-78.1-0.3-113,23.3l1.1,4.7l52.7,15.6l53.4-15.6l5-18.8l-2.1,23.7L80.1,178.4z M139.6,128l-10.2-4.8l-6.4-2.8
		c0,0-35.1-15.9-37.4-16.2c-6.7-0.6-50.1,4.8-50.1,4.8l-11.8,11.6l-1.6,5.4L12.9,23.7c13.1-4.4,69.5-24.7,136,0.4L139.6,128z
		 M153.8,47.6c0,0,2.4-27.2,1.3-28.4c-1.1-1.2-7.2-3.9-11.8-4.9c0,0,7,1.3,13.5,3.9L153.8,47.6z"/>
	<path class="st0" d="M87.3,130.1l-8.9-6.8l-9.9-2.4l-11.1,1.5l-8.2,5.1c0,0-1.8,6.5-1.8,7.2c0.4,0.3,1.6,2.3,2.3,3.6
		C59.9,135.4,72.8,132.2,87.3,130.1z"/>
	<path class="st0" d="M137.5,83.2c-4.1-1.4-14.7-2.8-27.5-2c15.2-2.4,27.9-2.3,28.6-1.5c0.8,1.1,1.2,9.6,1.6,8.6
		c0.6-1.4,3.9-12.6,4.2-15.5c0.1-1.3-11.9-26.2-11.9-26.2c-0.1-0.1-0.1-0.2-0.2-0.2h0c-0.7,0.1-16.5,2.9-18.4,3.4
		c-0.3,0.1-6.7,4.4-13.9,10.6c6.7-7,12.5-11.7,13.1-12.1c1.5-1.1,17.1-3.4,17.7-3.6c1.1-0.2,9.9,6.5,9.9,6.5l-13.3-16.9
		c0,0-11.8-5.4-11.9-5.5c-0.1,0-0.1,0-0.2,0c-2.9,1.8-10.4,4.5-15.3,7.4c-0.3,0.2-2.1,3.4-4.2,7.9c1.8-4.9,3.4-8.2,3.6-8.4
		c1.8-2,13.6-8.4,13.6-8.4l1.3-0.5c0,0,7.1,1.8,8.1,1.7c0.4,0-8.2-4-8.2-4L99.4,22c-0.2,0.1-0.4,0.2-0.5,0.3
		c-0.9,1.3-6.4,3.5-12.4,6.1c-0.4,0.2-2.2,4-3,7.8c0.6-3.9,2.2-8.3,2.4-8.4c4.6-2.4,11.6-5.8,11.6-5.8l0.8-0.9l5.8-1.3l-7.4-1.2
		l-11.9-0.4l-6.1,1.1l-12.4,4.3c-1-0.9-10.1-8.6-9.1-6.9c0.8,1.6,1.2,7.7,1.3,9.4c-0.9,0.4-3.4,1.6-4.6,2.4L40.9,45.2L28.3,61.4
		l-3.1,2.8l-2.3,6.1c0,0,7.2,11.9,8.3,11.9c0.4,0,0.4,0.3,0.4,0.3c6.2,3,9.3,5.5,10.6,4.6c1.3-0.9,1.7-6.9,7.6-11
		c3.7-2.6,9.8-7.5,9.8-7.5l9.5-3.2l4.3-2.6l6.9-5.8l-1.1,11.1c0,0-9.1,8.9-15.3,12.9c-0.4,0.3-26,25.4-26,25.4s30.1-3.5,48.4-3.9
		c2.6-0.1,42.9,18.1,42.9,18.1l-7.5-9.9l-1.2-5.5c0,0,18.1,20.6,17.3,17c-0.5-2.3,2.6-25.2,2.6-25.2L137.5,83.2z M28.7,74.4
		c0,0-2.8-3.3-2.9-3.8c-0.1-0.5,1.1-3.1,1.7-3.4c0.2-0.2,0.3,0.1,0.4,0.3C31.9,76.1,28.7,74.4,28.7,74.4z M55,40.2l-1.6,5.2L49,47.4
		l0.1-4.4l-1.3,0.6l3.8-4.9l4.5-4L55,40.2z M74.6,57.3l3-7.8l-4.5-10l4.3,3.4l2.1,6.9L74.6,57.3z M85.5,90.1l-4.5,0.8l-1.9-4
		l3.9-3.3l3.6,2.2L85.5,90.1z M87.1,44.9L85.8,43l1.8-1.6l2.1,1l-0.5,2.2L87.1,44.9z M89.5,56.6l2.7-2.5l2.5,1.5l-1.1,3.1l-3.1,0.5
		L89.5,56.6z M97.7,76.3l-3.6,0.6l-1.3-3.6l3-2.4l3.1,1.6L97.7,76.3z"/>
</g>
</svg>
